HIERARCHY
ROOT SpineBase
{
  OFFSET 0.000000 0.000000 0.000000
  CHANNELS 6 Xposition Yposition Zposition Zrotation Xrotation Yrotation
  JOINT SpineMid
  {
    OFFSET -0.000000 25.269906 0.000000
    CHANNELS 3 Zrotation Xrotation Yrotation
    JOINT SpineShoulder
    {
      OFFSET -0.007469 18.818091 -0.572198
      CHANNELS 3 Zrotation Xrotation Yrotation
      JOINT Neck
      {
        OFFSET -0.013016 6.242702 -0.446078
        CHANNELS 3 Zrotation Xrotation Yrotation
        JOINT Head
        {
          OFFSET 2.915233 13.048374 1.266205
          CHANNELS 3 Zrotation Xrotation Yrotation
          End Site
          {
            OFFSET 0 0 0
          }
        }
      }
      JOINT ShoulderLeft
      {
        OFFSET -10.610006 -2.988231 -7.410938
        CHANNELS 3 Zrotation Xrotation Yrotation
        JOINT ElbowLeft
        {
          OFFSET -4.487273 -18.608670 -1.710577
          CHANNELS 3 Zrotation Xrotation Yrotation
          JOINT WristLeft
          {
            OFFSET 23.653804 3.135325 -9.920198
            CHANNELS 3 Zrotation Xrotation Yrotation
            JOINT HandLeft
            {
              OFFSET 3.317942 0.520878 -0.487308
              CHANNELS 3 Zrotation Xrotation Yrotation
              JOINT HandTipLeft
              {
                OFFSET 4.215183 0.758582 0.795527
                CHANNELS 3 Zrotation Xrotation Yrotation
                End Site
                {
                  OFFSET 0 0 0
                }
              }
              JOINT ThumbLeft
              {
                OFFSET -2.189162 0.441231 -5.691866
                CHANNELS 3 Zrotation Xrotation Yrotation
                End Site
                {
                  OFFSET 0 0 0
                }
              }
            }
          }
        }
      }
      JOINT ShoulderRight
      {
        OFFSET 10.916423 -2.253248 5.854452
        CHANNELS 3 Zrotation Xrotation Yrotation
        JOINT ElbowRight
        {
          OFFSET 4.726809 -25.102538 2.947347
          CHANNELS 3 Zrotation Xrotation Yrotation
          JOINT WristRight
          {
            OFFSET -3.474357 10.107389 -24.551532
            CHANNELS 3 Zrotation Xrotation Yrotation
            JOINT HandRight
            {
              OFFSET 0.241359 -0.867491 -4.417360
              CHANNELS 3 Zrotation Xrotation Yrotation
              JOINT HandTipRight
              {
                OFFSET -0.425253 1.415375 -3.381781
                CHANNELS 3 Zrotation Xrotation Yrotation
                End Site
                {
                  OFFSET 0 0 0
                }
              }
              JOINT ThumbRight
              {
                OFFSET -3.496784 0.586671 -1.233456
                CHANNELS 3 Zrotation Xrotation Yrotation
                End Site
                {
                  OFFSET 0 0 0
                }
              }
            }
          }
        }
      }
    }
  }
  JOINT HipLeft
  {
    OFFSET -4.920246 1.085100 -5.715990
    CHANNELS 3 Zrotation Xrotation Yrotation
    JOINT KneeLeft
    {
      OFFSET -5.362084 -37.261218 4.028299
      CHANNELS 3 Zrotation Xrotation Yrotation
      JOINT AnkleLeft
      {
        OFFSET -4.074898 -30.728075 7.622691
        CHANNELS 3 Zrotation Xrotation Yrotation
        JOINT FootLeft
        {
          OFFSET 5.796907 -8.384487 1.227443
          CHANNELS 3 Zrotation Xrotation Yrotation
          End Site
          {
            OFFSET 0 0 0
          }
        }
      }
    }
  }
  JOINT HipRight
  {
    OFFSET 4.673999 0.101645 -0.106606
    CHANNELS 3 Zrotation Xrotation Yrotation
    JOINT KneeRight
    {
      OFFSET -1.996461 -35.322061 3.425380
      CHANNELS 3 Zrotation Xrotation Yrotation
      JOINT AnkleRight
      {
        OFFSET -5.345212 -33.944729 8.291927
        CHANNELS 3 Zrotation Xrotation Yrotation
        JOINT FootRight
        {
          OFFSET 4.611869 -3.420341 -10.477344
          CHANNELS 3 Zrotation Xrotation Yrotation
          End Site
          {
            OFFSET 0 0 0
          }
        }
      }
    }
  }
}
MOTION
Frames: 5
Frame Time: 0.033333
18.109439 75.156191 360.876665 0.011941 -1.765897 -28.013913 0.341887 0.057115 28.018482 0.152796 -0.042247 0.019298 1.833027 -8.151268 2.161031 0.000000 0.000000 0.000000 0.041110 6.518121 -1.217748 0.719495 -4.104548 1.281326 4.759134 0.749459 -3.603497 -4.799369 -1.157927 0.124839 0.000000 0.000000 0.000000 0.000000 0.000000 0.000000 49.602346 3.086361 3.810605 -45.706936 9.674809 7.839483 -11.025174 37.581264 19.618835 -3.872483 -42.624254 -19.898001 0.000000 0.000000 0.000000 0.000000 0.000000 0.000000 -1.232398 4.107328 27.785425 -1.490065 -1.213129 -0.102076 -3.852158 11.874671 9.602302 0.000000 0.000000 0.000000 -0.840166 1.553328 28.025487 0.644840 1.614197 -0.106224 -16.767350 -37.618603 34.157833 0.000000 0.000000 0.000000
18.073822 75.255500 360.854594 0.193848 -1.809675 -27.901203 0.361873 0.114931 27.914618 0.152392 -0.012933 0.028527 2.246736 -7.400579 1.925115 0.000000 0.000000 0.000000 0.180077 6.495793 -1.292371 0.389736 -4.227409 2.314995 4.614585 0.979655 -6.713653 -4.649089 -1.872137 4.317319 0.000000 0.000000 0.000000 0.000000 0.000000 0.000000 51.795298 1.982769 4.306296 -49.790741 16.489229 6.324602 -9.925497 37.754684 19.225571 -8.767331 -38.978381 -35.813015 0.000000 0.000000 0.000000 0.000000 0.000000 0.000000 -1.488889 4.293038 27.650776 -1.588022 -1.506909 -0.088236 -3.966065 5.682479 4.772309 0.000000 0.000000 0.000000 -1.018409 1.508499 27.917672 0.643444 1.517794 -0.090735 -15.016055 -28.927853 29.292165 0.000000 0.000000 0.000000
18.062154 75.363465 360.812434 0.390474 -1.768080 -27.879731 0.378797 0.199746 27.902671 0.181715 0.017847 0.040622 2.464296 -6.928591 1.734338 0.000000 0.000000 0.000000 0.526210 6.438337 -1.431248 -0.024838 -4.284029 2.812274 4.750512 0.999755 -7.753072 -5.322429 -1.855862 3.976579 0.000000 0.000000 0.000000 0.000000 0.000000 0.000000 53.351232 2.128018 4.499853 -52.668160 20.457459 4.696490 -10.554634 35.522832 21.361468 -8.057250 -39.808040 -33.489288 0.000000 0.000000 0.000000 0.000000 0.000000 0.000000 -1.760665 4.341790 27.605483 -1.616409 -1.949864 -0.044999 -4.936998 -1.836190 -1.300114 0.000000 0.000000 0.000000 -1.172205 1.380119 27.899875 0.609729 1.371732 -0.074650 -14.734343 -27.870381 28.548012 0.000000 0.000000 0.000000
18.070089 75.465410 360.793792 0.576595 -1.657827 -27.858913 0.379079 0.296133 27.890292 0.215294 0.047680 0.052382 2.601386 -6.742181 1.603228 0.000000 0.000000 0.000000 0.803345 6.464469 -1.596025 -0.099005 -4.321966 2.769852 4.961642 0.742346 -6.384937 -6.675505 -1.432856 1.401192 0.000000 0.000000 0.000000 0.000000 0.000000 0.000000 54.774663 2.971895 4.521263 -54.620022 21.800246 3.497158 -12.688804 27.663690 25.886354 -3.800973 -37.576398 -26.712089 0.000000 0.000000 0.000000 0.000000 0.000000 0.000000 -1.939997 4.255033 27.569470 -1.586933 -2.303742 0.005213 -4.796278 0.225442 0.110073 0.000000 0.000000 0.000000 -1.284696 1.196058 27.880665 0.512506 1.259984 -0.079125 -15.192183 -30.185832 28.933941 0.000000 0.000000 0.000000
18.100137 75.544794 360.778416 0.759045 -1.462900 -27.862321 0.381449 0.394545 27.901324 0.251583 0.084354 0.064506 2.461833 -6.683156 1.499095 0.000000 0.000000 0.000000 1.244579 6.280962 -1.753585 -0.022361 -4.034895 2.112473 5.074033 0.282938 -3.266453 -5.281044 -1.787249 0.952379 0.000000 0.000000 0.000000 0.000000 0.000000 0.000000 55.117604 3.477371 4.606780 -53.637037 15.770067 5.430938 -11.879686 35.195668 22.465122 -1.086061 -42.572296 -12.762874 0.000000 0.000000 0.000000 0.000000 0.000000 0.000000 -2.013997 3.965210 27.570799 -1.540022 -2.592520 0.052463 -6.089392 -1.133726 -1.412345 0.000000 0.000000 0.000000 -1.354890 0.938370 27.883107 0.425012 1.141227 -0.080367 -16.403644 -35.901147 30.631187 0.000000 0.000000 0.000000
